<?xml version="1.0" encoding="UTF-8" standalone="no"?>
<!DOCTYPE svg PUBLIC "-//W3C//DTD SVG 20010904//EN"
              "http://www.w3.org/TR/2001/REC-SVG-20010904/DTD/svg10.dtd">

<svg xmlns="http://www.w3.org/2000/svg"
     width="5.33267in" height="5.33267in"
     viewBox="0 0 128 128">
  <path id="Lomo"
        fill="none" stroke="black" stroke-width="1"
        d="M 59.63,107.50
           C 59.63,107.50 63.50,107.38 63.50,107.38
             63.50,107.38 62.63,33.50 62.63,33.50
             62.63,33.50 58.88,32.63 58.88,32.63M 65.25,108.13
           C 65.25,108.13 126.38,107.88 126.38,107.88
             126.38,107.88 126.50,36.75 126.50,36.75
             126.50,36.75 124.13,36.63 124.13,36.63M 65.00,107.25
           C 65.00,107.25 122.00,99.63 122.00,99.63
             122.00,99.63 122.13,25.75 122.13,25.75
             122.13,25.75 116.38,26.88 116.38,26.88M 64.00,32.25
           C 64.00,32.25 113.75,20.50 113.75,20.50
             113.75,20.50 114.25,94.25 114.25,94.25
             114.25,94.25 65.25,106.75 65.25,106.75
             65.25,106.75 64.25,33.00 64.25,33.00M 57.63,107.50
           C 57.63,107.50 1.63,107.63 1.63,107.63
             1.63,107.63 1.13,37.13 1.13,37.13
             1.13,37.13 3.63,36.63 3.63,36.63M 11.75,26.38
           C 11.75,26.38 5.88,25.88 5.88,25.88
             5.88,25.88 6.00,99.13 6.00,99.13
             6.00,99.13 58.63,106.25 58.63,106.25M 14.38,20.38
           C 14.38,20.38 57.88,31.75 57.88,31.75
             57.88,31.75 59.38,105.88 59.38,105.88
             59.38,105.88 14.13,94.63 14.13,94.63
             14.13,94.63 14.38,20.75 14.38,20.75M 72.25,42.38
           C 72.25,42.38 71.88,39.88 71.88,39.88
             71.88,39.88 106.00,29.75 106.00,29.75
             106.00,29.75 106.13,33.50 106.13,33.50
             106.13,33.50 72.38,42.88 72.38,42.88M 72.00,51.50
           C 72.00,51.50 72.00,49.25 72.00,49.25
             72.00,49.25 105.88,39.38 105.88,39.38
             105.88,39.38 106.25,42.13 106.25,42.13
             106.25,42.13 72.13,51.88 72.13,51.88M 72.13,60.88
           C 72.13,60.88 72.63,58.00 72.63,58.00
             72.63,58.00 106.00,48.50 106.00,48.50
             106.00,48.50 105.88,51.88 105.88,51.88
             105.88,51.88 72.50,61.00 72.50,61.00M 72.00,70.13
           C 72.00,70.13 72.25,66.88 72.25,66.88
             72.25,66.88 106.25,57.63 106.25,57.63
             106.25,57.63 105.88,61.00 105.88,61.00
             105.88,61.00 72.13,70.25 72.13,70.25M 72.13,79.25
           C 72.13,79.25 72.75,76.00 72.75,76.00
             72.75,76.00 106.13,66.88 106.13,66.88
             106.13,66.88 106.25,70.00 106.25,70.00
             106.25,70.00 72.25,79.50 72.25,79.50M 20.13,33.88
           C 20.13,33.88 20.13,30.38 20.13,30.38
             20.13,30.38 54.88,39.63 54.88,39.63
             54.88,39.63 54.75,42.75 54.75,42.75
             54.75,42.75 20.50,34.00 20.50,34.00M 20.13,42.88
           C 20.13,42.88 20.13,38.88 20.13,38.88
             20.13,38.88 55.00,48.75 55.00,48.75
             55.00,48.75 54.88,52.25 54.88,52.25
             54.88,52.25 20.50,43.13 20.50,43.13M 20.13,52.13
           C 20.13,52.13 20.13,48.63 20.13,48.63
             20.13,48.63 55.00,57.75 55.00,57.75
             55.00,57.75 54.63,60.88 54.63,60.88
             54.63,60.88 20.13,52.13 20.13,52.13M 19.88,61.50
           C 19.88,61.50 20.13,57.75 20.13,57.75
             20.13,57.75 55.00,67.25 55.00,67.25
             55.00,67.25 55.00,70.38 55.00,70.38
             55.00,70.38 20.63,61.63 20.63,61.63M 20.13,70.25
           C 20.13,70.25 20.13,66.50 20.13,66.50
             20.13,66.50 55.00,76.38 55.00,76.38
             55.00,76.38 54.75,79.63 54.75,79.63
             54.75,79.63 20.75,70.50 20.75,70.50M 19.88,79.25
           C 19.88,79.25 19.88,75.75 19.88,75.75
             19.88,75.75 54.38,85.25 54.38,85.25
             54.38,85.25 54.38,88.88 54.38,88.88
             54.38,88.88 20.13,79.38 20.13,79.38M 106.88,75.50
           C 106.88,79.38 106.75,79.75 106.75,79.88
             106.75,79.88 71.25,89.13 71.25,89.13
             71.25,89.13 71.00,85.00 71.00,85.00
             71.00,85.00 106.88,75.50 106.88,75.50 Z" />
</svg>
